<svg width="369" height="73" viewBox="0 0 369 73" fill="none" xmlns="http://www.w3.org/2000/svg">
<path d="M21.5199 14.3636H29.3608V45.0455C29.3466 47.858 28.75 50.2798 27.571 52.3111C26.392 54.3281 24.7443 55.8835 22.6278 56.9773C20.5256 58.0568 18.0753 58.5966 15.277 58.5966C12.7202 58.5966 10.419 58.142 8.37358 57.233C6.34233 56.3097 4.73011 54.946 3.53693 53.142C2.34375 51.3381 1.74716 49.0937 1.74716 46.4091H9.60938C9.62358 47.5881 9.87926 48.6037 10.3764 49.456C10.8878 50.3082 11.5909 50.9616 12.4858 51.4162C13.3807 51.8707 14.4105 52.098 15.5753 52.098C16.8395 52.098 17.9119 51.8352 18.7926 51.3097C19.6733 50.7699 20.3409 49.9744 20.7955 48.9233C21.2642 47.8722 21.5057 46.5795 21.5199 45.0455V14.3636ZM61.6513 26.3594C61.4524 24.4986 60.6143 23.0497 59.1371 22.0128C57.674 20.9759 55.7706 20.4574 53.4268 20.4574C51.7791 20.4574 50.3658 20.706 49.1868 21.2031C48.0078 21.7003 47.1058 22.375 46.4808 23.2273C45.8558 24.0795 45.5362 25.0526 45.522 26.1463C45.522 27.0554 45.728 27.8437 46.1399 28.5114C46.5661 29.179 47.1413 29.7472 47.8658 30.2159C48.5902 30.6705 49.3928 31.054 50.2734 31.3665C51.1541 31.679 52.0419 31.9418 52.9368 32.1548L57.0277 33.1776C58.6754 33.5611 60.2592 34.0795 61.7791 34.733C63.3132 35.3864 64.6839 36.2102 65.8913 37.2045C67.1129 38.1989 68.0788 39.3991 68.7891 40.8054C69.4993 42.2116 69.8544 43.8594 69.8544 45.7486C69.8544 48.3054 69.201 50.5568 67.8942 52.5028C66.5874 54.4347 64.6982 55.9474 62.2266 57.0412C59.7692 58.1207 56.7933 58.6605 53.299 58.6605C49.9041 58.6605 46.9567 58.1349 44.4567 57.0838C41.9709 56.0327 40.0249 54.4986 38.6186 52.4815C37.2266 50.4645 36.4737 48.0071 36.3601 45.1094H44.1371C44.2507 46.6293 44.7195 47.8935 45.5433 48.902C46.3672 49.9105 47.4396 50.6634 48.7607 51.1605C50.0959 51.6577 51.5874 51.9062 53.2351 51.9062C54.9538 51.9062 56.4595 51.6506 57.7521 51.1392C59.0589 50.6136 60.0817 49.8892 60.8203 48.9659C61.5589 48.0284 61.9354 46.9347 61.9496 45.6847C61.9354 44.5483 61.6016 43.6108 60.9482 42.8722C60.2947 42.1193 59.3786 41.4943 58.1996 40.9972C57.0348 40.4858 55.6712 40.0312 54.1087 39.6335L49.1442 38.3551C45.5504 37.4318 42.7095 36.0327 40.6214 34.1577C38.5476 32.2685 37.5107 29.7614 37.5107 26.6364C37.5107 24.0653 38.2067 21.8139 39.5987 19.8821C41.005 17.9503 42.9155 16.4517 45.3303 15.3864C47.745 14.3068 50.4794 13.767 53.5334 13.767C56.63 13.767 59.343 14.3068 61.6726 15.3864C64.0163 16.4517 65.8558 17.9361 67.1911 19.8395C68.5263 21.7287 69.2152 23.902 69.2578 26.3594H61.6513Z" fill="#FBBF24"/>
<path d="M90.8977 58.6818C87.8295 58.6818 85.1875 57.9574 82.9716 56.5085C80.7557 55.0597 79.0511 53.0639 77.858 50.5213C76.6648 47.9787 76.0682 45.0739 76.0682 41.8068C76.0682 38.483 76.679 35.5497 77.9006 33.0071C79.1364 30.4503 80.8551 28.4545 83.0568 27.0199C85.2727 25.571 87.858 24.8466 90.8125 24.8466C93.1136 24.8466 95.1875 25.2727 97.0341 26.125C98.8807 26.9773 100.393 28.1705 101.572 29.7045C102.751 31.2386 103.483 33.0284 103.767 35.0739H98.7386C98.3551 33.5824 97.5028 32.2614 96.1818 31.1108C94.875 29.946 93.1136 29.3636 90.8977 29.3636C88.9375 29.3636 87.2188 29.875 85.7415 30.8977C84.2784 31.9062 83.1349 33.3338 82.3111 35.1804C81.5014 37.0128 81.0966 39.1648 81.0966 41.6364C81.0966 44.1648 81.4943 46.3665 82.2898 48.2415C83.0994 50.1165 84.2358 51.5724 85.6989 52.6094C87.1761 53.6463 88.9091 54.1648 90.8977 54.1648C92.2045 54.1648 93.3906 53.9375 94.456 53.483C95.5213 53.0284 96.4233 52.375 97.1619 51.5227C97.9006 50.6705 98.4261 49.6477 98.7386 48.4545H103.767C103.483 50.3864 102.78 52.1264 101.658 53.6747C100.55 55.2088 99.0795 56.4304 97.2472 57.3395C95.429 58.2344 93.3125 58.6818 90.8977 58.6818ZM116.146 38.3125V58H111.118V14.3636H116.146V30.3864H116.572C117.339 28.696 118.49 27.3537 120.024 26.3594C121.572 25.3509 123.632 24.8466 126.203 24.8466C128.433 24.8466 130.386 25.294 132.062 26.1889C133.739 27.0696 135.038 28.4261 135.962 30.2585C136.899 32.0767 137.368 34.392 137.368 37.2045V58H132.339V37.5455C132.339 34.946 131.665 32.9361 130.315 31.5156C128.98 30.081 127.126 29.3636 124.754 29.3636C123.107 29.3636 121.629 29.7116 120.322 30.4077C119.03 31.1037 118.007 32.1193 117.254 33.4545C116.516 34.7898 116.146 36.4091 116.146 38.3125ZM156.198 58.767C154.124 58.767 152.242 58.3764 150.551 57.5952C148.861 56.7997 147.519 55.6562 146.525 54.1648C145.53 52.6591 145.033 50.8409 145.033 48.7102C145.033 46.8352 145.402 45.3153 146.141 44.1506C146.88 42.9716 147.867 42.0483 149.103 41.3807C150.338 40.7131 151.702 40.2159 153.194 39.8892C154.699 39.5483 156.212 39.2784 157.732 39.0795C159.721 38.8239 161.333 38.6321 162.569 38.5043C163.819 38.3622 164.728 38.1278 165.296 37.8011C165.878 37.4744 166.169 36.9062 166.169 36.0966V35.9261C166.169 33.8239 165.594 32.1903 164.444 31.0256C163.307 29.8608 161.581 29.2784 159.266 29.2784C156.865 29.2784 154.983 29.804 153.62 30.8551C152.256 31.9062 151.297 33.0284 150.743 34.2216L145.971 32.517C146.823 30.5284 147.959 28.9801 149.38 27.8722C150.814 26.75 152.377 25.9687 154.067 25.5284C155.772 25.0739 157.448 24.8466 159.096 24.8466C160.147 24.8466 161.354 24.9744 162.718 25.2301C164.096 25.4716 165.424 25.9759 166.702 26.7429C167.995 27.5099 169.067 28.6676 169.919 30.2159C170.772 31.7642 171.198 33.8381 171.198 36.4375V58H166.169V53.5682H165.914C165.573 54.2784 165.005 55.0384 164.209 55.848C163.414 56.6577 162.355 57.3466 161.034 57.9148C159.713 58.483 158.101 58.767 156.198 58.767ZM156.965 54.25C158.953 54.25 160.63 53.8594 161.993 53.0781C163.371 52.2969 164.408 51.2884 165.104 50.0526C165.814 48.8168 166.169 47.517 166.169 46.1534V41.5511C165.956 41.8068 165.488 42.0412 164.763 42.2543C164.053 42.4531 163.229 42.6307 162.292 42.7869C161.368 42.929 160.466 43.0568 159.586 43.1705C158.719 43.2699 158.016 43.3551 157.476 43.4261C156.169 43.5966 154.948 43.8736 153.811 44.2571C152.689 44.6264 151.78 45.1875 151.084 45.9403C150.402 46.679 150.061 47.6875 150.061 48.9659C150.061 50.7131 150.708 52.0341 152 52.929C153.307 53.8097 154.962 54.25 156.965 54.25ZM185.404 14.3636V58H180.376V14.3636H185.404ZM199.642 14.3636V58H194.614V14.3636H199.642ZM222.574 58.6818C219.42 58.6818 216.7 57.9858 214.413 56.5938C212.141 55.1875 210.386 53.2273 209.151 50.7131C207.929 48.1847 207.318 45.2443 207.318 41.892C207.318 38.5398 207.929 35.5852 209.151 33.0284C210.386 30.4574 212.105 28.4545 214.307 27.0199C216.523 25.571 219.108 24.8466 222.062 24.8466C223.767 24.8466 225.45 25.1307 227.112 25.6989C228.774 26.267 230.287 27.1903 231.651 28.4688C233.014 29.733 234.101 31.4091 234.911 33.4972C235.72 35.5852 236.125 38.1562 236.125 41.2102V43.3409H210.898V38.9943H231.011C231.011 37.1477 230.642 35.5 229.903 34.0511C229.179 32.6023 228.142 31.4588 226.793 30.6207C225.457 29.7827 223.881 29.3636 222.062 29.3636C220.06 29.3636 218.327 29.8608 216.864 30.8551C215.415 31.8352 214.3 33.1136 213.518 34.6903C212.737 36.267 212.347 37.9574 212.347 39.7614V42.6591C212.347 45.1307 212.773 47.2259 213.625 48.9446C214.491 50.6491 215.692 51.9489 217.226 52.8438C218.76 53.7244 220.543 54.1648 222.574 54.1648C223.895 54.1648 225.088 53.9801 226.153 53.6108C227.233 53.2273 228.163 52.6591 228.945 51.9062C229.726 51.1392 230.33 50.1875 230.756 49.0511L235.614 50.4148C235.102 52.0625 234.243 53.5114 233.036 54.7614C231.828 55.9972 230.337 56.9631 228.561 57.6591C226.786 58.3409 224.79 58.6818 222.574 58.6818ZM248.803 38.3125V58H243.774V25.2727H248.632V30.3864H249.058C249.825 28.7244 250.99 27.3892 252.553 26.3807C254.115 25.358 256.132 24.8466 258.604 24.8466C260.82 24.8466 262.759 25.3011 264.42 26.2102C266.082 27.1051 267.375 28.4688 268.298 30.3011C269.222 32.1193 269.683 34.4205 269.683 37.2045V58H264.655V37.5455C264.655 34.9744 263.987 32.9716 262.652 31.5369C261.317 30.0881 259.484 29.3636 257.155 29.3636C255.55 29.3636 254.115 29.7116 252.851 30.4077C251.601 31.1037 250.614 32.1193 249.889 33.4545C249.165 34.7898 248.803 36.4091 248.803 38.3125ZM292.082 70.9545C289.653 70.9545 287.565 70.642 285.818 70.017C284.071 69.4062 282.615 68.5966 281.45 67.5881C280.299 66.5938 279.383 65.5284 278.701 64.392L282.707 61.5795C283.162 62.1761 283.737 62.858 284.433 63.625C285.129 64.4062 286.081 65.081 287.288 65.6491C288.51 66.2315 290.108 66.5227 292.082 66.5227C294.724 66.5227 296.904 65.8835 298.623 64.6051C300.342 63.3267 301.201 61.3239 301.201 58.5966V51.9489H300.775C300.406 52.5455 299.88 53.2841 299.199 54.1648C298.531 55.0312 297.565 55.8054 296.301 56.4872C295.051 57.1548 293.36 57.4886 291.23 57.4886C288.588 57.4886 286.216 56.8636 284.113 55.6136C282.025 54.3636 280.37 52.5455 279.149 50.1591C277.941 47.7727 277.338 44.875 277.338 41.4659C277.338 38.1136 277.927 35.1946 279.106 32.7088C280.285 30.2088 281.926 28.277 284.028 26.9134C286.13 25.5355 288.559 24.8466 291.315 24.8466C293.446 24.8466 295.136 25.2017 296.386 25.9119C297.65 26.608 298.616 27.4034 299.284 28.2983C299.966 29.179 300.491 29.9034 300.86 30.4716H301.372V25.2727H306.23V58.9375C306.23 61.75 305.591 64.0369 304.312 65.7983C303.048 67.5739 301.343 68.8736 299.199 69.6974C297.068 70.5355 294.696 70.9545 292.082 70.9545ZM291.912 52.9716C293.929 52.9716 295.633 52.5099 297.025 51.5866C298.417 50.6634 299.475 49.3352 300.2 47.6023C300.924 45.8693 301.287 43.7955 301.287 41.3807C301.287 39.0227 300.931 36.9418 300.221 35.1378C299.511 33.3338 298.46 31.9205 297.068 30.8977C295.676 29.875 293.957 29.3636 291.912 29.3636C289.781 29.3636 288.005 29.9034 286.585 30.983C285.179 32.0625 284.12 33.5114 283.41 35.3295C282.714 37.1477 282.366 39.1648 282.366 41.3807C282.366 43.6534 282.721 45.6634 283.431 47.4105C284.156 49.1435 285.221 50.5071 286.627 51.5014C288.048 52.4815 289.809 52.9716 291.912 52.9716ZM329.156 58.6818C326.002 58.6818 323.282 57.9858 320.995 56.5938C318.723 55.1875 316.968 53.2273 315.733 50.7131C314.511 48.1847 313.9 45.2443 313.9 41.892C313.9 38.5398 314.511 35.5852 315.733 33.0284C316.968 30.4574 318.687 28.4545 320.889 27.0199C323.105 25.571 325.69 24.8466 328.645 24.8466C330.349 24.8466 332.032 25.1307 333.694 25.6989C335.356 26.267 336.869 27.1903 338.233 28.4688C339.596 29.733 340.683 31.4091 341.493 33.4972C342.302 35.5852 342.707 38.1562 342.707 41.2102V43.3409H317.48V38.9943H337.593C337.593 37.1477 337.224 35.5 336.485 34.0511C335.761 32.6023 334.724 31.4588 333.375 30.6207C332.039 29.7827 330.463 29.3636 328.645 29.3636C326.642 29.3636 324.909 29.8608 323.446 30.8551C321.997 31.8352 320.882 33.1136 320.1 34.6903C319.319 36.267 318.929 37.9574 318.929 39.7614V42.6591C318.929 45.1307 319.355 47.2259 320.207 48.9446C321.074 50.6491 322.274 51.9489 323.808 52.8438C325.342 53.7244 327.125 54.1648 329.156 54.1648C330.477 54.1648 331.67 53.9801 332.735 53.6108C333.815 53.2273 334.745 52.6591 335.527 51.9062C336.308 51.1392 336.912 50.1875 337.338 49.0511L342.196 50.4148C341.684 52.0625 340.825 53.5114 339.618 54.7614C338.41 55.9972 336.919 56.9631 335.143 57.6591C333.368 58.3409 331.372 58.6818 329.156 58.6818ZM350.356 58V25.2727H355.214V30.2159H355.555C356.152 28.5966 357.231 27.2827 358.794 26.2741C360.356 25.2656 362.118 24.7614 364.078 24.7614C364.447 24.7614 364.909 24.7685 365.463 24.7827C366.017 24.7969 366.436 24.8182 366.72 24.8466V29.9602C366.549 29.9176 366.159 29.8537 365.548 29.7685C364.951 29.669 364.319 29.6193 363.652 29.6193C362.061 29.6193 360.64 29.9531 359.39 30.6207C358.154 31.2741 357.174 32.1832 356.45 33.348C355.74 34.4986 355.385 35.8125 355.385 37.2898V58H350.356Z" fill="#FBBF24"/>
</svg>
